<mxfile host="app.diagrams.net" modified="2023-04-02T21:24:13.649Z" agent="Mozilla/5.0 (Macintosh; Intel Mac OS X 10.15; rv:109.0) Gecko/20100101 Firefox/111.0" etag="EoUZjoHNGWJghKc0fFVp" version="21.1.2" type="github">
  <diagram name="Page-1" id="EEZycO_NF6HMaPR0JYtG">
    <mxGraphModel dx="1194" dy="547" grid="1" gridSize="10" guides="1" tooltips="1" connect="1" arrows="1" fold="1" page="1" pageScale="1" pageWidth="850" pageHeight="1100" math="0" shadow="0">
      <root>
        <mxCell id="0" />
        <mxCell id="1" parent="0" />
        <mxCell id="SpIytS3ZcbbBWpfLDEAr-1" value="&lt;div&gt;&lt;font size=&quot;3&quot;&gt;Fasta File:&lt;/font&gt;&lt;/div&gt;&lt;div&gt;&lt;font size=&quot;3&quot;&gt;MHC Sequence&lt;/font&gt;&lt;/div&gt;&lt;div&gt;&lt;font size=&quot;3&quot;&gt;Antigen Sequence&lt;/font&gt;&lt;/div&gt;&lt;div&gt;&lt;font size=&quot;3&quot;&gt;Binding Region Seq&lt;br&gt;&lt;/font&gt;&lt;/div&gt;" style="rounded=1;whiteSpace=wrap;html=1;fillColor=#00FF00;" vertex="1" parent="1">
          <mxGeometry x="60" y="130" width="190" height="130" as="geometry" />
        </mxCell>
        <mxCell id="SpIytS3ZcbbBWpfLDEAr-2" value="" style="endArrow=classic;html=1;rounded=0;" edge="1" parent="1">
          <mxGeometry width="50" height="50" relative="1" as="geometry">
            <mxPoint x="160" y="260" as="sourcePoint" />
            <mxPoint x="160" y="340" as="targetPoint" />
          </mxGeometry>
        </mxCell>
        <mxCell id="SpIytS3ZcbbBWpfLDEAr-3" value="&lt;font style=&quot;font-size: 14px;&quot;&gt;Simulated Protein Folding&lt;br&gt;&lt;/font&gt;" style="rounded=0;whiteSpace=wrap;html=1;" vertex="1" parent="1">
          <mxGeometry x="50" y="340" width="220" height="90" as="geometry" />
        </mxCell>
        <mxCell id="SpIytS3ZcbbBWpfLDEAr-4" value="" style="endArrow=classic;html=1;rounded=0;" edge="1" parent="1">
          <mxGeometry width="50" height="50" relative="1" as="geometry">
            <mxPoint x="270" y="390" as="sourcePoint" />
            <mxPoint x="360" y="390" as="targetPoint" />
          </mxGeometry>
        </mxCell>
        <mxCell id="SpIytS3ZcbbBWpfLDEAr-5" value="&lt;font style=&quot;font-size: 14px;&quot;&gt;Clean HP Lattice&lt;/font&gt;&lt;font style=&quot;font-size: 12px;&quot;&gt; &lt;br&gt;&lt;/font&gt;" style="rounded=0;whiteSpace=wrap;html=1;" vertex="1" parent="1">
          <mxGeometry x="360" y="340" width="200" height="90" as="geometry" />
        </mxCell>
        <mxCell id="SpIytS3ZcbbBWpfLDEAr-6" value="" style="endArrow=classic;html=1;rounded=0;" edge="1" parent="1" target="SpIytS3ZcbbBWpfLDEAr-7">
          <mxGeometry width="50" height="50" relative="1" as="geometry">
            <mxPoint x="560" y="390" as="sourcePoint" />
            <mxPoint x="610" y="390" as="targetPoint" />
          </mxGeometry>
        </mxCell>
        <mxCell id="SpIytS3ZcbbBWpfLDEAr-7" value="&lt;font style=&quot;font-size: 14px;&quot;&gt;Calculate change in Free Energy&lt;/font&gt;" style="rounded=0;whiteSpace=wrap;html=1;" vertex="1" parent="1">
          <mxGeometry x="600" y="340" width="170" height="90" as="geometry" />
        </mxCell>
        <mxCell id="SpIytS3ZcbbBWpfLDEAr-8" value="" style="endArrow=classic;html=1;rounded=0;exitX=0.5;exitY=0;exitDx=0;exitDy=0;" edge="1" parent="1" source="SpIytS3ZcbbBWpfLDEAr-7">
          <mxGeometry width="50" height="50" relative="1" as="geometry">
            <mxPoint x="686.56" y="335" as="sourcePoint" />
            <mxPoint x="683.4452459016393" y="240" as="targetPoint" />
          </mxGeometry>
        </mxCell>
        <mxCell id="SpIytS3ZcbbBWpfLDEAr-10" value="&lt;font style=&quot;font-size: 14px;&quot;&gt;Compare Free energy changes upon binding Determine if should undergo Negative Selection&lt;br&gt;&lt;/font&gt;" style="shape=hexagon;perimeter=hexagonPerimeter2;whiteSpace=wrap;html=1;fixedSize=1;fillColor=#FF9999;" vertex="1" parent="1">
          <mxGeometry x="590" y="120" width="190" height="120" as="geometry" />
        </mxCell>
      </root>
    </mxGraphModel>
  </diagram>
</mxfile>
